<svg width="100%" height="100%" id="svg" viewBox="0 0 1440 590" xmlns="http://www.w3.org/2000/svg" class="transition duration-300 ease-in-out delay-150" speechify-initial-font-family="&quot;Source Sans Pro&quot;, system-ui, -apple-system, BlinkMacSystemFont, &quot;Segoe UI&quot;, Roboto, &quot;Helvetica Neue&quot;, Arial, &quot;Noto Sans&quot;, sans-serif, &quot;Apple Color Emoji&quot;, &quot;Segoe UI Emoji&quot;, &quot;Segoe UI Symbol&quot;, &quot;Noto Color Emoji&quot;" speechify-initial-font-size="16px"><defs speechify-initial-font-family="&quot;Source Sans Pro&quot;, system-ui, -apple-system, BlinkMacSystemFont, &quot;Segoe UI&quot;, Roboto, &quot;Helvetica Neue&quot;, Arial, &quot;Noto Sans&quot;, sans-serif, &quot;Apple Color Emoji&quot;, &quot;Segoe UI Emoji&quot;, &quot;Segoe UI Symbol&quot;, &quot;Noto Color Emoji&quot;" speechify-initial-font-size="16px"><linearGradient id="gradient" x1="0%" y1="50%" x2="100%" y2="50%" speechify-initial-font-family="&quot;Source Sans Pro&quot;, system-ui, -apple-system, BlinkMacSystemFont, &quot;Segoe UI&quot;, Roboto, &quot;Helvetica Neue&quot;, Arial, &quot;Noto Sans&quot;, sans-serif, &quot;Apple Color Emoji&quot;, &quot;Segoe UI Emoji&quot;, &quot;Segoe UI Symbol&quot;, &quot;Noto Color Emoji&quot;" speechify-initial-font-size="16px"><stop offset="5%" stop-color="#F78DA7" speechify-initial-font-family="&quot;Source Sans Pro&quot;, system-ui, -apple-system, BlinkMacSystemFont, &quot;Segoe UI&quot;, Roboto, &quot;Helvetica Neue&quot;, Arial, &quot;Noto Sans&quot;, sans-serif, &quot;Apple Color Emoji&quot;, &quot;Segoe UI Emoji&quot;, &quot;Segoe UI Symbol&quot;, &quot;Noto Color Emoji&quot;" speechify-initial-font-size="16px"></stop><stop offset="95%" stop-color="#8ED1FC" speechify-initial-font-family="&quot;Source Sans Pro&quot;, system-ui, -apple-system, BlinkMacSystemFont, &quot;Segoe UI&quot;, Roboto, &quot;Helvetica Neue&quot;, Arial, &quot;Noto Sans&quot;, sans-serif, &quot;Apple Color Emoji&quot;, &quot;Segoe UI Emoji&quot;, &quot;Segoe UI Symbol&quot;, &quot;Noto Color Emoji&quot;" speechify-initial-font-size="16px"></stop></linearGradient></defs><path d="M 0,600 C 0,600 0,200 0,200 C 29.96967022868435,247.2320254963085 59.9393404573687,294.464050992617 98,273 C 136.0606595426313,251.53594900738298 182.21230839920958,161.37582152584048 226,151 C 269.7876916007904,140.62417847415952 311.21142594579294,210.03266290402118 346,209 C 380.78857405420706,207.96733709597882 408.9419878176188,136.49352685807474 443,146 C 477.0580121823812,155.50647314192526 517.0206227837318,245.9932296636798 558,260 C 598.9793772162682,274.0067703363202 640.9755210474543,211.53355448720612 677,187 C 713.0244789525457,162.46644551279388 743.0772930264513,175.87255238749572 773,164 C 802.9227069735487,152.12744761250428 832.7153068467403,114.97623596281105 871,139 C 909.2846931532597,163.02376403718895 956.0614795865879,248.22250376126004 992,267 C 1027.938520413412,285.77749623873996 1053.0387748069088,238.13374899214855 1086,203 C 1118.9612251930912,167.86625100785145 1159.783421185777,145.24250027014574 1203,150 C 1246.216578814223,154.75749972985426 1291.8275404499832,186.89624992726846 1337,211 C 1382.1724595500168,235.10375007273154 1426.9064170142906,251.17250002078043 1444,248 C 1461.0935829857094,244.82749997921957 1450.5467914928547,222.41374998960978 1440,200 C 1440,200 1440,600 1440,600 Z" stroke="none" stroke-width="0" fill="url(#gradient)" fill-opacity="0.53" class="transition-all duration-300 ease-in-out delay-150 path-0" speechify-initial-font-family="&quot;Source Sans Pro&quot;, system-ui, -apple-system, BlinkMacSystemFont, &quot;Segoe UI&quot;, Roboto, &quot;Helvetica Neue&quot;, Arial, &quot;Noto Sans&quot;, sans-serif, &quot;Apple Color Emoji&quot;, &quot;Segoe UI Emoji&quot;, &quot;Segoe UI Symbol&quot;, &quot;Noto Color Emoji&quot;" speechify-initial-font-size="16px"></path><defs speechify-initial-font-family="&quot;Source Sans Pro&quot;, system-ui, -apple-system, BlinkMacSystemFont, &quot;Segoe UI&quot;, Roboto, &quot;Helvetica Neue&quot;, Arial, &quot;Noto Sans&quot;, sans-serif, &quot;Apple Color Emoji&quot;, &quot;Segoe UI Emoji&quot;, &quot;Segoe UI Symbol&quot;, &quot;Noto Color Emoji&quot;" speechify-initial-font-size="16px"><linearGradient id="gradient" x1="0%" y1="50%" x2="100%" y2="50%" speechify-initial-font-family="&quot;Source Sans Pro&quot;, system-ui, -apple-system, BlinkMacSystemFont, &quot;Segoe UI&quot;, Roboto, &quot;Helvetica Neue&quot;, Arial, &quot;Noto Sans&quot;, sans-serif, &quot;Apple Color Emoji&quot;, &quot;Segoe UI Emoji&quot;, &quot;Segoe UI Symbol&quot;, &quot;Noto Color Emoji&quot;" speechify-initial-font-size="16px"><stop offset="5%" stop-color="#F78DA7" speechify-initial-font-family="&quot;Source Sans Pro&quot;, system-ui, -apple-system, BlinkMacSystemFont, &quot;Segoe UI&quot;, Roboto, &quot;Helvetica Neue&quot;, Arial, &quot;Noto Sans&quot;, sans-serif, &quot;Apple Color Emoji&quot;, &quot;Segoe UI Emoji&quot;, &quot;Segoe UI Symbol&quot;, &quot;Noto Color Emoji&quot;" speechify-initial-font-size="16px"></stop><stop offset="95%" stop-color="#8ED1FC" speechify-initial-font-family="&quot;Source Sans Pro&quot;, system-ui, -apple-system, BlinkMacSystemFont, &quot;Segoe UI&quot;, Roboto, &quot;Helvetica Neue&quot;, Arial, &quot;Noto Sans&quot;, sans-serif, &quot;Apple Color Emoji&quot;, &quot;Segoe UI Emoji&quot;, &quot;Segoe UI Symbol&quot;, &quot;Noto Color Emoji&quot;" speechify-initial-font-size="16px"></stop></linearGradient></defs><path d="M 0,600 C 0,600 0,400 0,400 C 46.77600651947208,400.3969386115748 93.55201303894415,400.79387722314965 128,398 C 162.44798696105585,395.20612277685035 184.56795436369538,389.22142971897614 212,393 C 239.43204563630462,396.77857028102386 272.17616950627445,410.32040390094556 312,417 C 351.82383049372555,423.67959609905444 398.727367611207,423.49695467724155 442,427 C 485.272632388793,430.50304532275845 524.9143600488974,437.6917773900882 562,429 C 599.0856399511026,420.3082226099118 633.6151921932034,395.73593576240575 663,386 C 692.3848078067966,376.26406423759425 716.6248711782893,381.3644795602886 758,402 C 799.3751288217107,422.6355204397114 857.8853230936397,458.8061459964399 894,467 C 930.1146769063603,475.1938540035601 943.833836447152,455.4109364539517 977,447 C 1010.166163552848,438.5890635460483 1062.7793311177522,441.5501081877532 1103,431 C 1143.2206688822478,420.4498918122468 1171.0488390818396,396.3886307950352 1202,380 C 1232.9511609181604,363.6113692049648 1267.0253125548895,354.8953686321059 1315,352 C 1362.9746874451105,349.1046313678941 1424.849910698603,352.0298946765412 1448,361 C 1471.150089301397,369.9701053234588 1455.5750446506986,384.9850526617294 1440,400 C 1440,400 1440,600 1440,600 Z" stroke="none" stroke-width="0" fill="url(#gradient)" fill-opacity="1" class="transition-all duration-300 ease-in-out delay-150 path-1" speechify-initial-font-family="&quot;Source Sans Pro&quot;, system-ui, -apple-system, BlinkMacSystemFont, &quot;Segoe UI&quot;, Roboto, &quot;Helvetica Neue&quot;, Arial, &quot;Noto Sans&quot;, sans-serif, &quot;Apple Color Emoji&quot;, &quot;Segoe UI Emoji&quot;, &quot;Segoe UI Symbol&quot;, &quot;Noto Color Emoji&quot;" speechify-initial-font-size="16px"></path></svg>